<svg id="SvgjsSvg1006" width="847" height="1148" xmlns="http://www.w3.org/2000/svg" version="1.1" xmlns:xlink="http://www.w3.org/1999/xlink" xmlns:svgjs="http://svgjs.com/svgjs"><defs id="SvgjsDefs1007"><marker id="SvgjsMarker1038" markerWidth="16" markerHeight="12" refX="16" refY="6" viewBox="0 0 16 12" orient="auto" markerUnits="userSpaceOnUse"><path id="SvgjsPath1039" d="M0,2 L14,6 L0,11 L0,2" fill="#323232" stroke="#323232" stroke-width="2"></path></marker><marker id="SvgjsMarker1042" markerWidth="16" markerHeight="12" refX="16" refY="6" viewBox="0 0 16 12" orient="auto" markerUnits="userSpaceOnUse"><path id="SvgjsPath1043" d="M0,2 L14,6 L0,11 L0,2" fill="#323232" stroke="#323232" stroke-width="2"></path></marker><marker id="SvgjsMarker1046" markerWidth="16" markerHeight="12" refX="16" refY="6" viewBox="0 0 16 12" orient="auto" markerUnits="userSpaceOnUse"><path id="SvgjsPath1047" d="M0,2 L14,6 L0,11 L0,2" fill="#323232" stroke="#323232" stroke-width="2"></path></marker><marker id="SvgjsMarker1056" markerWidth="16" markerHeight="12" refX="16" refY="6" viewBox="0 0 16 12" orient="auto" markerUnits="userSpaceOnUse"><path id="SvgjsPath1057" d="M0,2 L14,6 L0,11 L0,2" fill="#323232" stroke="#323232" stroke-width="2"></path></marker><marker id="SvgjsMarker1060" markerWidth="16" markerHeight="12" refX="16" refY="6" viewBox="0 0 16 12" orient="auto" markerUnits="userSpaceOnUse"><path id="SvgjsPath1061" d="M0,2 L14,6 L0,11 L0,2" fill="#323232" stroke="#323232" stroke-width="2"></path></marker><marker id="SvgjsMarker1076" markerWidth="16" markerHeight="12" refX="16" refY="6" viewBox="0 0 16 12" orient="auto" markerUnits="userSpaceOnUse"><path id="SvgjsPath1077" d="M0,2 L14,6 L0,11 L0,2" fill="#323232" stroke="#323232" stroke-width="2"></path></marker><marker id="SvgjsMarker1142" markerWidth="16" markerHeight="12" refX="16" refY="6" viewBox="0 0 16 12" orient="auto" markerUnits="userSpaceOnUse"><path id="SvgjsPath1143" d="M0,2 L14,6 L0,11 L0,2" fill="#323232" stroke="#323232" stroke-width="2"></path></marker><marker id="SvgjsMarker1156" markerWidth="16" markerHeight="12" refX="16" refY="6" viewBox="0 0 16 12" orient="auto" markerUnits="userSpaceOnUse"><path id="SvgjsPath1157" d="M0,2 L14,6 L0,11 L0,2" fill="#323232" stroke="#323232" stroke-width="2"></path></marker><marker id="SvgjsMarker1168" markerWidth="16" markerHeight="12" refX="16" refY="6" viewBox="0 0 16 12" orient="auto" markerUnits="userSpaceOnUse"><path id="SvgjsPath1169" d="M0,2 L14,6 L0,11 L0,2" fill="#323232" stroke="#323232" stroke-width="2"></path></marker><marker id="SvgjsMarker1184" markerWidth="16" markerHeight="12" refX="16" refY="6" viewBox="0 0 16 12" orient="auto" markerUnits="userSpaceOnUse"><path id="SvgjsPath1185" d="M0,2 L14,6 L0,11 L0,2" fill="#323232" stroke="#323232" stroke-width="2"></path></marker><marker id="SvgjsMarker1192" markerWidth="16" markerHeight="12" refX="16" refY="6" viewBox="0 0 16 12" orient="auto" markerUnits="userSpaceOnUse"><path id="SvgjsPath1193" d="M0,2 L14,6 L0,11 L0,2" fill="#323232" stroke="#323232" stroke-width="2"></path></marker><marker id="SvgjsMarker1200" markerWidth="16" markerHeight="12" refX="16" refY="6" viewBox="0 0 16 12" orient="auto" markerUnits="userSpaceOnUse"><path id="SvgjsPath1201" d="M0,2 L14,6 L0,11 L0,2" fill="#323232" stroke="#323232" stroke-width="2"></path></marker><marker id="SvgjsMarker1204" markerWidth="16" markerHeight="12" refX="16" refY="6" viewBox="0 0 16 12" orient="auto" markerUnits="userSpaceOnUse"><path id="SvgjsPath1205" d="M0,2 L14,6 L0,11 L0,2" fill="#323232" stroke="#323232" stroke-width="2"></path></marker><marker id="SvgjsMarker1208" markerWidth="16" markerHeight="12" refX="16" refY="6" viewBox="0 0 16 12" orient="auto" markerUnits="userSpaceOnUse"><path id="SvgjsPath1209" d="M0,2 L14,6 L0,11 L0,2" fill="#323232" stroke="#323232" stroke-width="2"></path></marker><marker id="SvgjsMarker1228" markerWidth="16" markerHeight="12" refX="16" refY="6" viewBox="0 0 16 12" orient="auto" markerUnits="userSpaceOnUse"><path id="SvgjsPath1229" d="M0,2 L14,6 L0,11 L0,2" fill="#323232" stroke="#323232" stroke-width="2"></path></marker><marker id="SvgjsMarker1232" markerWidth="16" markerHeight="12" refX="16" refY="6" viewBox="0 0 16 12" orient="auto" markerUnits="userSpaceOnUse"><path id="SvgjsPath1233" d="M0,2 L14,6 L0,11 L0,2" fill="#323232" stroke="#323232" stroke-width="2"></path></marker><marker id="SvgjsMarker1236" markerWidth="16" markerHeight="12" refX="16" refY="6" viewBox="0 0 16 12" orient="auto" markerUnits="userSpaceOnUse"><path id="SvgjsPath1237" d="M0,2 L14,6 L0,11 L0,2" fill="#323232" stroke="#323232" stroke-width="2"></path></marker><marker id="SvgjsMarker1240" markerWidth="16" markerHeight="12" refX="16" refY="6" viewBox="0 0 16 12" orient="auto" markerUnits="userSpaceOnUse"><path id="SvgjsPath1241" d="M0,2 L14,6 L0,11 L0,2" fill="#323232" stroke="#323232" stroke-width="2"></path></marker><marker id="SvgjsMarker1244" markerWidth="16" markerHeight="12" refX="16" refY="6" viewBox="0 0 16 12" orient="auto" markerUnits="userSpaceOnUse"><path id="SvgjsPath1245" d="M0,2 L14,6 L0,11 L0,2" fill="#323232" stroke="#323232" stroke-width="2"></path></marker></defs><g id="SvgjsG1008" transform="translate(259.5,25)"><path id="SvgjsPath1009" d="M 16.666666666666668 0L 83.33333333333333 0C 105.55555555555556 0 105.55555555555556 50 83.33333333333333 50L 16.666666666666668 50C -5.555555555555556 50 -5.555555555555556 0 16.666666666666668 0Z" stroke="#323232" stroke-width="2" fill-opacity="1" fill="#ffffff"></path><g id="SvgjsG1010"><text id="SvgjsText1011" font-family="微软雅黑" text-anchor="middle" font-size="13px" width="22" fill="#323232" font-weight="400" align="middle" anchor="middle" family="微软雅黑" size="13px" weight="400" font-style="" y="15.05" transform="rotate(0)"><tspan id="SvgjsTspan1012" dy="16" x="50"><tspan id="SvgjsTspan1013" style="text-decoration:;">start</tspan></tspan></text></g></g><g id="SvgjsG1014" transform="translate(254.5,109)"><path id="SvgjsPath1015" d="M 0 0L 110 0L 110 54L 0 54Z" stroke="#323232" stroke-width="2" fill-opacity="1" fill="#ffffff"></path><g id="SvgjsG1016"><text id="SvgjsText1017" font-family="微软雅黑" text-anchor="middle" font-size="13px" width="83" fill="#323232" font-weight="400" align="middle" anchor="middle" family="微软雅黑" size="13px" weight="400" font-style="" y="9.05" transform="rotate(0)"><tspan id="SvgjsTspan1018" dy="16" x="55"><tspan id="SvgjsTspan1019" style="text-decoration:;">get the next pod </tspan></tspan><tspan id="SvgjsTspan1020" dy="16" x="55"><tspan id="SvgjsTspan1021" style="text-decoration:;">from queue</tspan></tspan></text></g></g><g id="SvgjsG1022" transform="translate(254.5,191)"><path id="SvgjsPath1023" d="M 0 0L 110 0L 110 54L 0 54Z" stroke="#323232" stroke-width="2" fill-opacity="1" fill="#ffffff"></path><g id="SvgjsG1024"><text id="SvgjsText1025" font-family="微软雅黑" text-anchor="middle" font-size="13px" width="79" fill="#323232" font-weight="400" align="middle" anchor="middle" family="微软雅黑" size="13px" weight="400" font-style="" y="17.05" transform="rotate(0)"><tspan id="SvgjsTspan1026" dy="16" x="55"><tspan id="SvgjsTspan1027" style="text-decoration:;">new cycle state</tspan></tspan></text></g></g><g id="SvgjsG1028" transform="translate(254.5,274)"><path id="SvgjsPath1029" d="M 0 0L 110 0L 110 54L 0 54Z" stroke="#323232" stroke-width="2" fill-opacity="1" fill="#ffffff"></path><g id="SvgjsG1030"><text id="SvgjsText1031" font-family="微软雅黑" text-anchor="middle" font-size="13px" width="82" fill="#323232" font-weight="400" align="middle" anchor="middle" family="微软雅黑" size="13px" weight="400" font-style="" y="9.05" transform="rotate(0)"><tspan id="SvgjsTspan1032" dy="16" x="55"><tspan id="SvgjsTspan1033" style="text-decoration:;">use algorithem </tspan></tspan><tspan id="SvgjsTspan1034" dy="16" x="55"><tspan id="SvgjsTspan1035" style="text-decoration:;">to schedule pod</tspan></tspan></text></g></g><g id="SvgjsG1036"><path id="SvgjsPath1037" d="M309.5 75L309.5 92L309.5 92L309.5 109" stroke="#323232" stroke-width="2" fill="none" marker-end="url(#SvgjsMarker1038)"></path></g><g id="SvgjsG1040"><path id="SvgjsPath1041" d="M309.5 163L309.5 177L309.5 177L309.5 191" stroke="#323232" stroke-width="2" fill="none" marker-end="url(#SvgjsMarker1042)"></path></g><g id="SvgjsG1044"><path id="SvgjsPath1045" d="M309.5 245L309.5 259.5L309.5 259.5L309.5 274" stroke="#323232" stroke-width="2" fill="none" marker-end="url(#SvgjsMarker1046)"></path></g><g id="SvgjsG1048" transform="translate(254.5,360)"><path id="SvgjsPath1049" d="M 0 26.5L 55 0L 110 26.5L 55 53Z" stroke="#323232" stroke-width="2" fill-opacity="1" fill="#ffffff"></path><g id="SvgjsG1050"><text id="SvgjsText1051" font-family="微软雅黑" text-anchor="middle" font-size="13px" width="39" fill="#323232" font-weight="400" align="middle" anchor="middle" family="微软雅黑" size="13px" weight="400" font-style="" y="16.815" transform="rotate(0)"><tspan id="SvgjsTspan1052" dy="16" x="55"><tspan id="SvgjsTspan1053" style="text-decoration:;">success</tspan></tspan></text></g></g><g id="SvgjsG1054"><path id="SvgjsPath1055" d="M309.5 328L309.5 344L309.5 344L309.5 360" stroke="#323232" stroke-width="2" fill="none" marker-end="url(#SvgjsMarker1056)"></path></g><g id="SvgjsG1058"><path id="SvgjsPath1059" d="M254.5 386.5L225 386.5L225 386.5L195.5 386.5" stroke="#323232" stroke-width="2" fill="none" marker-end="url(#SvgjsMarker1060)"></path><rect id="SvgjsRect1062" width="13" height="16" x="218.5" y="378.5" fill="#ffffff"></rect><text id="SvgjsText1063" font-family="微软雅黑" text-anchor="middle" font-size="13px" width="13" fill="#323232" font-weight="400" align="top" anchor="middle" family="微软雅黑" size="13px" weight="400" font-style="" y="376.55" transform="rotate(0)"><tspan id="SvgjsTspan1064" dy="16" x="225"><tspan id="SvgjsTspan1065" style="text-decoration:;">no</tspan></tspan></text></g><g id="SvgjsG1066" transform="translate(95.5,351.5)"><path id="SvgjsPath1067" d="M 0 0L 100 0L 100 70L 0 70Z" stroke="#323232" stroke-width="2" fill-opacity="1" fill="#ffffff"></path><g id="SvgjsG1068"><text id="SvgjsText1069" font-family="微软雅黑" text-anchor="middle" font-size="13px" width="59" fill="#323232" font-weight="400" align="middle" anchor="middle" family="微软雅黑" size="13px" weight="400" font-style="" y="17.05" transform="rotate(0)"><tspan id="SvgjsTspan1070" dy="16" x="50"><tspan id="SvgjsTspan1071" style="text-decoration:;">try to </tspan></tspan><tspan id="SvgjsTspan1072" dy="16" x="50"><tspan id="SvgjsTspan1073" style="text-decoration:;">preemption</tspan></tspan></text></g></g><g id="SvgjsG1074"><path id="SvgjsPath1075" d="M309.5 413L309.5 429L310.5 429L310.5 445" stroke="#323232" stroke-width="2" fill="none" marker-end="url(#SvgjsMarker1076)"></path><rect id="SvgjsRect1078" width="17" height="16" x="301.5" y="421" fill="#ffffff"></rect><text id="SvgjsText1079" font-family="微软雅黑" text-anchor="middle" font-size="13px" width="17" fill="#323232" font-weight="400" align="top" anchor="middle" family="微软雅黑" size="13px" weight="400" font-style="" y="419.05" transform="rotate(0)"><tspan id="SvgjsTspan1080" dy="16" x="310"><tspan id="SvgjsTspan1081" style="text-decoration:;">yes</tspan></tspan></text></g><g id="SvgjsG1082" transform="translate(253,450.5)"><path id="SvgjsPath1083" d="M 0 0L 115 0L 115 55.5L 0 55.5Z" stroke="#323232" stroke-width="2" fill-opacity="1" fill="#ffffff"></path><g id="SvgjsG1084"><text id="SvgjsText1085" font-family="微软雅黑" text-anchor="middle" font-size="13px" width="80" fill="#323232" font-weight="400" align="middle" anchor="middle" family="微软雅黑" size="13px" weight="400" font-style="" y="9.8" transform="rotate(0)"><tspan id="SvgjsTspan1086" dy="16" x="57.5"><tspan id="SvgjsTspan1087" style="text-decoration:;">tell cache to </tspan></tspan><tspan id="SvgjsTspan1088" dy="16" x="57.5"><tspan id="SvgjsTspan1089" style="text-decoration:;">assume the pod</tspan></tspan></text></g></g><g id="SvgjsG1090" transform="translate(220.5,540.5)"><path id="SvgjsPath1091" d="M 0 0L 180 0L 180 45.5L 0 45.5Z" stroke="#323232" stroke-width="2" fill-opacity="1" fill="#ffffff"></path><g id="SvgjsG1092"><text id="SvgjsText1093" font-family="微软雅黑" text-anchor="middle" font-size="13px" width="145" fill="#323232" font-weight="400" align="middle" anchor="middle" family="微软雅黑" size="13px" weight="400" font-style="" y="4.8" transform="rotate(0)"><tspan id="SvgjsTspan1094" dy="16" x="90"><tspan id="SvgjsTspan1095" style="text-decoration:;">checkout if the assumedpod </tspan></tspan><tspan id="SvgjsTspan1096" dy="16" x="90"><tspan id="SvgjsTspan1097" style="text-decoration:;">volumes is allboound</tspan></tspan></text></g></g><g id="SvgjsG1098" transform="translate(260.5,619.5)"><path id="SvgjsPath1099" d="M 0 0L 100 0L 100 47.5L 0 47.5Z" stroke="#323232" stroke-width="2" fill-opacity="1" fill="#ffffff"></path><g id="SvgjsG1100"><text id="SvgjsText1101" font-family="微软雅黑" text-anchor="middle" font-size="13px" width="58" fill="#323232" font-weight="400" align="middle" anchor="middle" family="微软雅黑" size="13px" weight="400" font-style="" y="5.8" transform="rotate(0)"><tspan id="SvgjsTspan1102" dy="16" x="50"><tspan id="SvgjsTspan1103" style="text-decoration:;">run reserve </tspan></tspan><tspan id="SvgjsTspan1104" dy="16" x="50"><tspan id="SvgjsTspan1105" style="text-decoration:;">plugins</tspan></tspan></text></g></g><g id="SvgjsG1106" transform="translate(260.5,706.5)"><path id="SvgjsPath1107" d="M 0 0L 100 0L 100 70L 0 70Z" stroke="#323232" stroke-width="2" fill-opacity="1" fill="#ffffff"></path><g id="SvgjsG1108"><text id="SvgjsText1109" font-family="微软雅黑" text-anchor="middle" font-size="13px" width="38" fill="#323232" font-weight="400" align="middle" anchor="middle" family="微软雅黑" size="13px" weight="400" font-style="" y="25.05" transform="rotate(0)"><tspan id="SvgjsTspan1110" dy="16" x="50"><tspan id="SvgjsTspan1111" style="text-decoration:;">assume</tspan></tspan></text></g></g><g id="SvgjsG1112" transform="translate(441.5,762)"><path id="SvgjsPath1113" d="M 0 0L 196 0L 196 276L 0 276Z" stroke="#323232" stroke-width="2" fill-opacity="1" fill="#ffffff"></path><g id="SvgjsG1114"><text id="SvgjsText1115" font-family="微软雅黑" text-anchor="middle" font-size="13px" width="0" fill="#323232" font-weight="400" align="middle" anchor="middle" family="微软雅黑" size="13px" weight="400" font-style="" y="128.05" transform="rotate(0)"></text></g></g><g id="SvgjsG1116" transform="translate(413.5,753)"><path id="SvgjsPath1117" d="M 0 0L 120 0L 120 40L 0 40Z" stroke="none" fill="none"></path><g id="SvgjsG1118"><text id="SvgjsText1119" font-family="微软雅黑" text-anchor="middle" font-size="13px" width="46" fill="#323232" font-weight="400" align="middle" anchor="middle" family="微软雅黑" size="13px" weight="400" font-style="" y="10.05" transform="rotate(0)"><tspan id="SvgjsTspan1120" dy="16" x="60"><tspan id="SvgjsTspan1121" style="text-decoration:;">real bind</tspan></tspan></text></g></g><g id="SvgjsG1122" transform="translate(466.5,789.5)"><path id="SvgjsPath1123" d="M 0 0L 72 0L 72 26.5L 0 26.5Z" stroke="#323232" stroke-width="2" fill-opacity="1" fill="#ffffff"></path><g id="SvgjsG1124"><text id="SvgjsText1125" font-family="微软雅黑" text-anchor="middle" font-size="13px" width="34" fill="#323232" font-weight="400" align="middle" anchor="middle" family="微软雅黑" size="13px" weight="400" font-style="" y="3.3" transform="rotate(0)"><tspan id="SvgjsTspan1126" dy="16" x="36"><tspan id="SvgjsTspan1127" style="text-decoration:;">permit</tspan></tspan></text></g></g><g id="SvgjsG1128" transform="translate(466.5,850.75)"><path id="SvgjsPath1129" d="M 0 0L 72 0L 72 33.5L 0 33.5Z" stroke="#323232" stroke-width="2" fill-opacity="1" fill="#ffffff"></path><g id="SvgjsG1130"><text id="SvgjsText1131" font-family="微软雅黑" text-anchor="middle" font-size="13px" width="43" fill="#323232" font-weight="400" align="middle" anchor="middle" family="微软雅黑" size="13px" weight="400" font-style="" y="6.8" transform="rotate(0)"><tspan id="SvgjsTspan1132" dy="16" x="36"><tspan id="SvgjsTspan1133" style="text-decoration:;">pre bind</tspan></tspan></text></g></g><g id="SvgjsG1134" transform="translate(465.5,919.5)"><path id="SvgjsPath1135" d="M 0 0L 74 0L 74 39.5L 0 39.5Z" stroke="#323232" stroke-width="2" fill-opacity="1" fill="#ffffff"></path><g id="SvgjsG1136"><text id="SvgjsText1137" font-family="微软雅黑" text-anchor="middle" font-size="13px" width="23" fill="#323232" font-weight="400" align="middle" anchor="middle" family="微软雅黑" size="13px" weight="400" font-style="" y="9.8" transform="rotate(0)"><tspan id="SvgjsTspan1138" dy="16" x="37"><tspan id="SvgjsTspan1139" style="text-decoration:;">bind</tspan></tspan></text></g></g><g id="SvgjsG1140"><path id="SvgjsPath1141" d="M360.5 741.5L539.5 741.5L539.5 762" stroke="#323232" stroke-width="2" fill="none" marker-end="url(#SvgjsMarker1142)"></path><rect id="SvgjsRect1144" width="58" height="16" x="431.25" y="733.5" fill="#ffffff"></rect><text id="SvgjsText1145" font-family="微软雅黑" text-anchor="middle" font-size="13px" width="58" fill="#323232" font-weight="400" align="top" anchor="middle" family="微软雅黑" size="13px" weight="400" font-style="" y="731.55" transform="rotate(0)"><tspan id="SvgjsTspan1146" dy="16" x="460.25"><tspan id="SvgjsTspan1147" style="text-decoration:;">go routines</tspan></tspan></text></g><g id="SvgjsG1148" transform="translate(275,813)"><path id="SvgjsPath1149" d="M 0 0L 71 0L 71 34.5L 0 34.5Z" stroke="#323232" stroke-width="2" fill-opacity="1" fill="#ffffff"></path><g id="SvgjsG1150"><text id="SvgjsText1151" font-family="微软雅黑" text-anchor="middle" font-size="13px" width="19" fill="#323232" font-weight="400" align="middle" anchor="middle" family="微软雅黑" size="13px" weight="400" font-style="" y="7.3" transform="rotate(0)"><tspan id="SvgjsTspan1152" dy="16" x="35.5"><tspan id="SvgjsTspan1153" style="text-decoration:;">end</tspan></tspan></text></g></g><g id="SvgjsG1154"><path id="SvgjsPath1155" d="M310.5 776.5L310.5 794.75L310.5 794.75L310.5 813" stroke="#323232" stroke-width="2" fill="none" marker-end="url(#SvgjsMarker1156)"></path></g><g id="SvgjsG1158" transform="translate(25,712.75)"><path id="SvgjsPath1159" d="M 0 0L 167 0L 167 57.5L 0 57.5Z" stroke="#323232" stroke-width="2" fill-opacity="1" fill="#ffffff"></path><g id="SvgjsG1160"><text id="SvgjsText1161" font-family="微软雅黑" text-anchor="middle" font-size="13px" width="142" fill="#323232" font-weight="400" align="middle" anchor="middle" family="微软雅黑" size="13px" weight="400" font-style="" y="10.8" transform="rotate(0)"><tspan id="SvgjsTspan1162" dy="16" x="83.5"><tspan id="SvgjsTspan1163" style="text-decoration:;">1.run unreserve plugins</tspan></tspan><tspan id="SvgjsTspan1164" dy="16" x="83.5"><tspan id="SvgjsTspan1165" style="text-decoration:;">2.record SchedulingFailure</tspan></tspan></text></g></g><g id="SvgjsG1166"><path id="SvgjsPath1167" d="M260.5 741.5L226.25 741.5L226.25 741.5L192 741.5" stroke="#323232" stroke-width="2" fill="none" marker-end="url(#SvgjsMarker1168)"></path><rect id="SvgjsRect1170" width="17" height="16" x="217.75" y="733.5" fill="#ffffff"></rect><text id="SvgjsText1171" font-family="微软雅黑" text-anchor="middle" font-size="13px" width="17" fill="#323232" font-weight="400" align="top" anchor="middle" family="微软雅黑" size="13px" weight="400" font-style="" y="731.55" transform="rotate(0)"><tspan id="SvgjsTspan1172" dy="16" x="226.25"><tspan id="SvgjsTspan1173" style="text-decoration:;">fail</tspan></tspan></text></g><g id="SvgjsG1174" transform="translate(655,834.75)"><path id="SvgjsPath1175" d="M 0 0L 167 0L 167 57.5L 0 57.5Z" stroke="#323232" stroke-width="2" fill-opacity="1" fill="#ffffff"></path><g id="SvgjsG1176"><text id="SvgjsText1177" font-family="微软雅黑" text-anchor="middle" font-size="13px" width="142" fill="#323232" font-weight="400" align="middle" anchor="middle" family="微软雅黑" size="13px" weight="400" font-style="" y="10.8" transform="rotate(0)"><tspan id="SvgjsTspan1178" dy="16" x="83.5"><tspan id="SvgjsTspan1179" style="text-decoration:;">1.run unreserve plugins</tspan></tspan><tspan id="SvgjsTspan1180" dy="16" x="83.5"><tspan id="SvgjsTspan1181" style="text-decoration:;">2.record SchedulingFailure</tspan></tspan></text></g></g><g id="SvgjsG1182"><path id="SvgjsPath1183" d="M538.5 802.75L596.75 802.75L596.75 863.5L655 863.5" stroke="#323232" stroke-width="2" fill="none" marker-end="url(#SvgjsMarker1184)"></path><rect id="SvgjsRect1186" width="17" height="16" x="588.25" y="825.125" fill="#ffffff"></rect><text id="SvgjsText1187" font-family="微软雅黑" text-anchor="middle" font-size="13px" width="17" fill="#323232" font-weight="400" align="top" anchor="middle" family="微软雅黑" size="13px" weight="400" font-style="" y="823.175" transform="rotate(0)"><tspan id="SvgjsTspan1188" dy="16" x="596.75"><tspan id="SvgjsTspan1189" style="text-decoration:;">fail</tspan></tspan></text></g><g id="SvgjsG1190"><path id="SvgjsPath1191" d="M538.5 867.5L596.75 867.5L596.75 863.5L655 863.5" stroke="#323232" stroke-width="2" fill="none" marker-end="url(#SvgjsMarker1192)"></path><rect id="SvgjsRect1194" width="17" height="16" x="588.25" y="857.5" fill="#ffffff"></rect><text id="SvgjsText1195" font-family="微软雅黑" text-anchor="middle" font-size="13px" width="17" fill="#323232" font-weight="400" align="top" anchor="middle" family="微软雅黑" size="13px" weight="400" font-style="" y="855.55" transform="rotate(0)"><tspan id="SvgjsTspan1196" dy="16" x="596.75"><tspan id="SvgjsTspan1197" style="text-decoration:;">fail</tspan></tspan></text></g><g id="SvgjsG1198"><path id="SvgjsPath1199" d="M502.5 816L502.5 833.375L502.5 833.375L502.5 850.75" stroke="#323232" stroke-width="2" fill="none" marker-end="url(#SvgjsMarker1200)"></path></g><g id="SvgjsG1202"><path id="SvgjsPath1203" d="M502.5 884.25L502.5 901.875L502.5 901.875L502.5 919.5" stroke="#323232" stroke-width="2" fill="none" marker-end="url(#SvgjsMarker1204)"></path></g><g id="SvgjsG1206"><path id="SvgjsPath1207" d="M539.5 939.25L597.25 939.25L597.25 863.5L655 863.5" stroke="#323232" stroke-width="2" fill="none" marker-end="url(#SvgjsMarker1208)"></path><rect id="SvgjsRect1210" width="17" height="16" x="588.75" y="893.375" fill="#ffffff"></rect><text id="SvgjsText1211" font-family="微软雅黑" text-anchor="middle" font-size="13px" width="17" fill="#323232" font-weight="400" align="top" anchor="middle" family="微软雅黑" size="13px" weight="400" font-style="" y="891.425" transform="rotate(0)"><tspan id="SvgjsTspan1212" dy="16" x="597.25"><tspan id="SvgjsTspan1213" style="text-decoration:;">fail</tspan></tspan></text></g><g id="SvgjsG1214" transform="translate(465.5,977.5)"><path id="SvgjsPath1215" d="M 0 0L 74 0L 74 39.5L 0 39.5Z" stroke="#323232" stroke-width="2" fill-opacity="1" fill="#ffffff"></path><g id="SvgjsG1216"><text id="SvgjsText1217" font-family="微软雅黑" text-anchor="middle" font-size="13px" width="45" fill="#323232" font-weight="400" align="middle" anchor="middle" family="微软雅黑" size="13px" weight="400" font-style="" y="9.8" transform="rotate(0)"><tspan id="SvgjsTspan1218" dy="16" x="37"><tspan id="SvgjsTspan1219" style="text-decoration:;">postbind</tspan></tspan></text></g></g><g id="SvgjsG1220" transform="translate(504,1088)"><path id="SvgjsPath1221" d="M 0 0L 71 0L 71 34.5L 0 34.5Z" stroke="#323232" stroke-width="2" fill-opacity="1" fill="#ffffff"></path><g id="SvgjsG1222"><text id="SvgjsText1223" font-family="微软雅黑" text-anchor="middle" font-size="13px" width="19" fill="#323232" font-weight="400" align="middle" anchor="middle" family="微软雅黑" size="13px" weight="400" font-style="" y="7.3" transform="rotate(0)"><tspan id="SvgjsTspan1224" dy="16" x="35.5"><tspan id="SvgjsTspan1225" style="text-decoration:;">end</tspan></tspan></text></g></g><g id="SvgjsG1226"><path id="SvgjsPath1227" d="M539.5 1038L539.5 1063L539.5 1063L539.5 1088" stroke="#323232" stroke-width="2" fill="none" marker-end="url(#SvgjsMarker1228)"></path></g><g id="SvgjsG1230"><path id="SvgjsPath1231" d="M310.5 506L310.5 523.25L310.5 523.25L310.5 540.5" stroke="#323232" stroke-width="2" fill="none" marker-end="url(#SvgjsMarker1232)"></path></g><g id="SvgjsG1234"><path id="SvgjsPath1235" d="M310.5 586L310.5 602.75L310.5 602.75L310.5 619.5" stroke="#323232" stroke-width="2" fill="none" marker-end="url(#SvgjsMarker1236)"></path></g><g id="SvgjsG1238"><path id="SvgjsPath1239" d="M310.5 667L310.5 686.75L310.5 686.75L310.5 706.5" stroke="#323232" stroke-width="2" fill="none" marker-end="url(#SvgjsMarker1240)"></path></g><g id="SvgjsG1242"><path id="SvgjsPath1243" d="M502.5 959L502.5 968.25L502.5 968.25L502.5 977.5" stroke="#323232" stroke-width="2" fill="none" marker-end="url(#SvgjsMarker1244)"></path></g></svg>