<svg id="SvgjsSvg1188" width="799.5" height="867" xmlns="http://www.w3.org/2000/svg" version="1.1" xmlns:xlink="http://www.w3.org/1999/xlink" xmlns:svgjs="http://svgjs.com/svgjs"><defs id="SvgjsDefs1189"><marker id="SvgjsMarker1214" markerWidth="16" markerHeight="12" refX="16" refY="6" viewBox="0 0 16 12" orient="auto" markerUnits="userSpaceOnUse"><path id="SvgjsPath1215" d="M0,2 L14,6 L0,11 L0,2" fill="#323232" stroke="#323232" stroke-width="2"></path></marker><marker id="SvgjsMarker1234" markerWidth="16" markerHeight="12" refX="16" refY="6" viewBox="0 0 16 12" orient="auto" markerUnits="userSpaceOnUse"><path id="SvgjsPath1235" d="M0,2 L14,6 L0,11 L0,2" fill="#323232" stroke="#323232" stroke-width="2"></path></marker><marker id="SvgjsMarker1260" markerWidth="16" markerHeight="12" refX="16" refY="6" viewBox="0 0 16 12" orient="auto" markerUnits="userSpaceOnUse"><path id="SvgjsPath1261" d="M0,2 L14,6 L0,11 L0,2" fill="#323232" stroke="#323232" stroke-width="2"></path></marker><marker id="SvgjsMarker1272" markerWidth="16" markerHeight="12" refX="16" refY="6" viewBox="0 0 16 12" orient="auto" markerUnits="userSpaceOnUse"><path id="SvgjsPath1273" d="M0,2 L14,6 L0,11 L0,2" fill="#323232" stroke="#323232" stroke-width="2"></path></marker><marker id="SvgjsMarker1314" markerWidth="16" markerHeight="12" refX="16" refY="6" viewBox="0 0 16 12" orient="auto" markerUnits="userSpaceOnUse"><path id="SvgjsPath1315" d="M0,2 L14,6 L0,11 L0,2" fill="#323232" stroke="#323232" stroke-width="2"></path></marker><marker id="SvgjsMarker1338" markerWidth="16" markerHeight="12" refX="16" refY="6" viewBox="0 0 16 12" orient="auto" markerUnits="userSpaceOnUse"><path id="SvgjsPath1339" d="M0,2 L14,6 L0,11 L0,2" fill="#323232" stroke="#323232" stroke-width="2"></path></marker><marker id="SvgjsMarker1342" markerWidth="16" markerHeight="12" refX="16" refY="6" viewBox="0 0 16 12" orient="auto" markerUnits="userSpaceOnUse"><path id="SvgjsPath1343" d="M0,2 L14,6 L0,11 L0,2" fill="#323232" stroke="#323232" stroke-width="2"></path></marker><marker id="SvgjsMarker1346" markerWidth="16" markerHeight="12" refX="16" refY="6" viewBox="0 0 16 12" orient="auto" markerUnits="userSpaceOnUse"><path id="SvgjsPath1347" d="M0,2 L14,6 L0,11 L0,2" fill="#323232" stroke="#323232" stroke-width="2"></path></marker><marker id="SvgjsMarker1350" markerWidth="16" markerHeight="12" refX="16" refY="6" viewBox="0 0 16 12" orient="auto" markerUnits="userSpaceOnUse"><path id="SvgjsPath1351" d="M0,2 L14,6 L0,11 L0,2" fill="#323232" stroke="#323232" stroke-width="2"></path></marker><marker id="SvgjsMarker1354" markerWidth="16" markerHeight="12" refX="16" refY="6" viewBox="0 0 16 12" orient="auto" markerUnits="userSpaceOnUse"><path id="SvgjsPath1355" d="M0,2 L14,6 L0,11 L0,2" fill="#323232" stroke="#323232" stroke-width="2"></path></marker><marker id="SvgjsMarker1358" markerWidth="16" markerHeight="12" refX="16" refY="6" viewBox="0 0 16 12" orient="auto" markerUnits="userSpaceOnUse"><path id="SvgjsPath1359" d="M0,2 L14,6 L0,11 L0,2" fill="#323232" stroke="#323232" stroke-width="2"></path></marker><marker id="SvgjsMarker1368" markerWidth="16" markerHeight="12" refX="16" refY="6" viewBox="0 0 16 12" orient="auto" markerUnits="userSpaceOnUse"><path id="SvgjsPath1369" d="M0,2 L14,6 L0,11 L0,2" fill="#323232" stroke="#323232" stroke-width="2"></path></marker></defs><g id="SvgjsG1190" transform="translate(359,25)"><path id="SvgjsPath1191" d="M 16.666666666666668 0L 83.33333333333333 0C 105.55555555555556 0 105.55555555555556 50 83.33333333333333 50L 16.666666666666668 50C -5.555555555555556 50 -5.555555555555556 0 16.666666666666668 0Z" stroke="#323232" stroke-width="2" fill-opacity="1" fill="#ffffff"></path><g id="SvgjsG1192"><text id="SvgjsText1193" font-family="微软雅黑" text-anchor="middle" font-size="13px" width="22" fill="#323232" font-weight="400" align="middle" anchor="middle" family="微软雅黑" size="13px" weight="400" font-style="" y="15.05" transform="rotate(0)"><tspan id="SvgjsTspan1194" dy="16" x="50"><tspan id="SvgjsTspan1195" style="text-decoration:;">start</tspan></tspan></text></g></g><g id="SvgjsG1196" transform="translate(43.5,127)"><path id="SvgjsPath1197" d="M 0 0L 731 0L 731 620L 0 620Z" stroke="#323232" stroke-width="2" fill-opacity="1" fill="#ffffff"></path><g id="SvgjsG1198"><text id="SvgjsText1199" font-family="微软雅黑" text-anchor="middle" font-size="13px" width="0" fill="#323232" font-weight="400" align="middle" anchor="middle" family="微软雅黑" size="13px" weight="400" font-style="" y="300.05" transform="rotate(0)"></text></g></g><g id="SvgjsG1200" transform="translate(534.5,142)"><path id="SvgjsPath1201" d="M 0 0L 137 0L 137 70L 0 70Z" stroke="#323232" stroke-width="2" fill-opacity="1" fill="#ffffff"></path><g id="SvgjsG1202"><text id="SvgjsText1203" font-family="微软雅黑" text-anchor="middle" font-size="13px" width="103" fill="#323232" font-weight="400" align="middle" anchor="middle" family="微软雅黑" size="13px" weight="400" font-style="" y="1.05" transform="rotate(0)"><tspan id="SvgjsTspan1204" dy="16" x="68.5"><tspan id="SvgjsTspan1205" style="text-decoration:;">do cron action:</tspan></tspan><tspan id="SvgjsTspan1206" dy="16" x="68.5"><tspan id="SvgjsTspan1207" style="text-decoration:;">clean assumed pods </tspan></tspan><tspan id="SvgjsTspan1208" dy="16" x="68.5"><tspan id="SvgjsTspan1209" style="text-decoration:;">that expierd</tspan></tspan><tspan id="SvgjsTspan1210" dy="16" x="68.5"><tspan id="SvgjsTspan1211" style="text-decoration:;"> </tspan></tspan></text></g></g><g id="SvgjsG1212"><path id="SvgjsPath1213" d="M409 75L409 101L409 101L409 127" stroke="#323232" stroke-width="2" fill="none" marker-end="url(#SvgjsMarker1214)"></path></g><g id="SvgjsG1216" transform="translate(25,142)"><path id="SvgjsPath1217" d="M 0 0L 120 0L 120 40L 0 40Z" stroke="none" fill="none"></path><g id="SvgjsG1218"><text id="SvgjsText1219" font-family="微软雅黑" text-anchor="middle" font-size="13px" width="75" fill="#323232" font-weight="400" align="middle" anchor="middle" family="微软雅黑" size="13px" weight="400" font-style="" y="10.05" transform="rotate(0)"><tspan id="SvgjsTspan1220" dy="16" x="60"><tspan id="SvgjsTspan1221" style="text-decoration:;">new scheduler</tspan></tspan></text></g></g><g id="SvgjsG1222" transform="translate(202.5,142)"><path id="SvgjsPath1223" d="M 0 0L 121 0L 121 70L 0 70Z" stroke="#323232" stroke-width="2" fill-opacity="1" fill="#ffffff"></path><g id="SvgjsG1224"><text id="SvgjsText1225" font-family="微软雅黑" text-anchor="middle" font-size="13px" width="99" fill="#323232" font-weight="400" align="middle" anchor="middle" family="微软雅黑" size="13px" weight="400" font-style="" y="9.05" transform="rotate(0)"><tspan id="SvgjsTspan1226" dy="16" x="60.5"><tspan id="SvgjsTspan1227" style="text-decoration:;">new schedule </tspan></tspan><tspan id="SvgjsTspan1228" dy="16" x="60.5"><tspan id="SvgjsTspan1229" style="text-decoration:;">cache:assumed </tspan></tspan><tspan id="SvgjsTspan1230" dy="16" x="60.5"><tspan id="SvgjsTspan1231" style="text-decoration:;">pods  and nodinfos</tspan></tspan></text></g></g><g id="SvgjsG1232"><path id="SvgjsPath1233" d="M323.5 177L429 177L429 177L534.5 177" stroke="#323232" stroke-width="2" fill="none" marker-end="url(#SvgjsMarker1234)"></path><rect id="SvgjsRect1236" width="53" height="16" x="402.5" y="169" fill="#ffffff"></rect><text id="SvgjsText1237" font-family="微软雅黑" text-anchor="middle" font-size="13px" width="53" fill="#323232" font-weight="400" align="top" anchor="middle" family="微软雅黑" size="13px" weight="400" font-style="" y="167.05" transform="rotate(0)"><tspan id="SvgjsTspan1238" dy="16" x="429"><tspan id="SvgjsTspan1239" style="text-decoration:;">go routine</tspan></tspan></text></g><g id="SvgjsG1240" transform="translate(121.5,260)"><path id="SvgjsPath1241" d="M 0 0L 284 0L 284 159L 0 159Z" stroke="#323232" stroke-width="2" fill-opacity="1" fill="#ffffff"></path><g id="SvgjsG1242"><text id="SvgjsText1243" font-family="微软雅黑" text-anchor="middle" font-size="13px" width="0" fill="#323232" font-weight="400" align="middle" anchor="middle" family="微软雅黑" size="13px" weight="400" font-style="" y="69.55" transform="rotate(0)"></text></g></g><g id="SvgjsG1244" transform="translate(139.5,278)"><path id="SvgjsPath1245" d="M 0 0L 100 0L 100 70L 0 70Z" stroke="#323232" stroke-width="2" fill-opacity="1" fill="#ffffff"></path><g id="SvgjsG1246"><text id="SvgjsText1247" font-family="微软雅黑" text-anchor="middle" font-size="13px" width="79" fill="#323232" font-weight="400" align="middle" anchor="middle" family="微软雅黑" size="13px" weight="400" font-style="" y="25.05" transform="rotate(0)"><tspan id="SvgjsTspan1248" dy="16" x="50"><tspan id="SvgjsTspan1249" style="text-decoration:;">default registry</tspan></tspan></text></g></g><g id="SvgjsG1250" transform="translate(265.5,278)"><path id="SvgjsPath1251" d="M 0 0L 100 0L 100 70L 0 70Z" stroke="#323232" stroke-width="2" fill-opacity="1" fill="#ffffff"></path><g id="SvgjsG1252"><text id="SvgjsText1253" font-family="微软雅黑" text-anchor="middle" font-size="13px" width="78" fill="#323232" font-weight="400" align="middle" anchor="middle" family="微软雅黑" size="13px" weight="400" font-style="" y="17.05" transform="rotate(0)"><tspan id="SvgjsTspan1254" dy="16" x="50"><tspan id="SvgjsTspan1255" style="text-decoration:;">OutOfTreeReg</tspan></tspan><tspan id="SvgjsTspan1256" dy="16" x="50"><tspan id="SvgjsTspan1257" style="text-decoration:;">istry</tspan></tspan></text></g></g><g id="SvgjsG1258"><path id="SvgjsPath1259" d="M239.5 313L252.5 313L252.5 313L265.5 313" stroke="#323232" stroke-width="2" fill="none" marker-end="url(#SvgjsMarker1260)"></path></g><g id="SvgjsG1262" transform="translate(274.5,377)"><path id="SvgjsPath1263" d="M 0 0L 82 0L 82 32L 0 32Z" stroke="#323232" stroke-width="2" fill-opacity="1" fill="#ffffff"></path><g id="SvgjsG1264"><text id="SvgjsText1265" font-family="微软雅黑" text-anchor="middle" font-size="13px" width="44" fill="#323232" font-weight="400" align="middle" anchor="middle" family="微软雅黑" size="13px" weight="400" font-style="" y="-1.95" transform="rotate(0)"><tspan id="SvgjsTspan1266" dy="16" x="41"><tspan id="SvgjsTspan1267" style="text-decoration:;">merge </tspan></tspan><tspan id="SvgjsTspan1268" dy="16" x="41"><tspan id="SvgjsTspan1269" style="text-decoration:;">Registry</tspan></tspan></text></g></g><g id="SvgjsG1270"><path id="SvgjsPath1271" d="M315.5 348L315.5 362.5L315.5 362.5L315.5 377" stroke="#323232" stroke-width="2" fill="none" marker-end="url(#SvgjsMarker1272)"></path></g><g id="SvgjsG1274" transform="translate(213.5,463)"><path id="SvgjsPath1275" d="M 0 0L 100 0L 100 70L 0 70Z" stroke="#323232" stroke-width="2" fill-opacity="1" fill="#ffffff"></path><g id="SvgjsG1276"><text id="SvgjsText1277" font-family="微软雅黑" text-anchor="middle" font-size="13px" width="59" fill="#323232" font-weight="400" align="middle" anchor="middle" family="微软雅黑" size="13px" weight="400" font-style="" y="9.05" transform="rotate(0)"><tspan id="SvgjsTspan1278" dy="16" x="50"><tspan id="SvgjsTspan1279" style="text-decoration:;">init plugins </tspan></tspan><tspan id="SvgjsTspan1280" dy="16" x="50"><tspan id="SvgjsTspan1281" style="text-decoration:;">and pugin </tspan></tspan><tspan id="SvgjsTspan1282" dy="16" x="50"><tspan id="SvgjsTspan1283" style="text-decoration:;">config</tspan></tspan></text></g></g><g id="SvgjsG1284" transform="translate(213.5,549)"><path id="SvgjsPath1285" d="M 0 0L 100 0L 100 70L 0 70Z" stroke="#323232" stroke-width="2" fill-opacity="1" fill="#ffffff"></path><g id="SvgjsG1286"><text id="SvgjsText1287" font-family="微软雅黑" text-anchor="middle" font-size="13px" width="57" fill="#323232" font-weight="400" align="middle" anchor="middle" family="微软雅黑" size="13px" weight="400" font-style="" y="17.05" transform="rotate(0)"><tspan id="SvgjsTspan1288" dy="16" x="50"><tspan id="SvgjsTspan1289" style="text-decoration:;">new </tspan></tspan><tspan id="SvgjsTspan1290" dy="16" x="50"><tspan id="SvgjsTspan1291" style="text-decoration:;">framework</tspan></tspan></text></g></g><g id="SvgjsG1292" transform="translate(213.5,655)"><path id="SvgjsPath1293" d="M 0 0L 100 0L 100 70L 0 70Z" stroke="#323232" stroke-width="2" fill-opacity="1" fill="#ffffff"></path><g id="SvgjsG1294"><text id="SvgjsText1295" font-family="微软雅黑" text-anchor="middle" font-size="13px" width="79" fill="#323232" font-weight="400" align="middle" anchor="middle" family="微软雅黑" size="13px" weight="400" font-style="" y="25.05" transform="rotate(0)"><tspan id="SvgjsTspan1296" dy="16" x="50"><tspan id="SvgjsTspan1297" style="text-decoration:;">new pod queue</tspan></tspan></text></g></g><g id="SvgjsG1298" transform="translate(370,651.5)"><path id="SvgjsPath1299" d="M 0 0L 105 0L 105 77L 0 77Z" stroke="#323232" stroke-width="2" fill-opacity="1" fill="#ffffff"></path><g id="SvgjsG1300"><text id="SvgjsText1301" font-family="微软雅黑" text-anchor="middle" font-size="13px" width="78" fill="#323232" font-weight="400" align="middle" anchor="middle" family="微软雅黑" size="13px" weight="400" font-style="" y="-3.45" transform="rotate(0)"><tspan id="SvgjsTspan1302" dy="16" x="52.5"><tspan id="SvgjsTspan1303" style="text-decoration:;">do cron action:</tspan></tspan><tspan id="SvgjsTspan1304" dy="16" x="52.5"><tspan id="SvgjsTspan1305" style="text-decoration:;">clean assumed </tspan></tspan><tspan id="SvgjsTspan1306" dy="16" x="52.5"><tspan id="SvgjsTspan1307" style="text-decoration:;">pods that </tspan></tspan><tspan id="SvgjsTspan1308" dy="16" x="52.5"><tspan id="SvgjsTspan1309" style="text-decoration:;">expierd</tspan></tspan><tspan id="SvgjsTspan1310" dy="16" x="52.5"><tspan id="SvgjsTspan1311" style="text-decoration:;"> </tspan></tspan></text></g></g><g id="SvgjsG1312"><path id="SvgjsPath1313" d="M405.5 339.5L497.5 339.5L497.5 339.5L589.5 339.5" stroke="#323232" stroke-width="2" fill="none" marker-end="url(#SvgjsMarker1314)"></path></g><g id="SvgjsG1316" transform="translate(591.5,304.5)"><path id="SvgjsPath1317" d="M 0 0L 100 0L 100 70L 0 70Z" stroke="#323232" stroke-width="2" fill-opacity="1" fill="#ffffff"></path><g id="SvgjsG1318"><text id="SvgjsText1319" font-family="微软雅黑" text-anchor="middle" font-size="13px" width="52" fill="#323232" font-weight="400" align="middle" anchor="middle" family="微软雅黑" size="13px" weight="400" font-style="" y="9.05" transform="rotate(0)"><tspan id="SvgjsTspan1320" dy="16" x="50"><tspan id="SvgjsTspan1321" style="text-decoration:;">regestry + </tspan></tspan><tspan id="SvgjsTspan1322" dy="16" x="50"><tspan id="SvgjsTspan1323" style="text-decoration:;">factory</tspan></tspan><tspan id="SvgjsTspan1324" dy="16" x="50"><tspan id="SvgjsTspan1325" style="text-decoration:;"> </tspan></tspan></text></g></g><g id="SvgjsG1326" transform="translate(475,463)"><path id="SvgjsPath1327" d="M 0 0L 100 0L 100 70L 0 70Z" stroke="#323232" stroke-width="2" fill-opacity="1" fill="#ffffff"></path><g id="SvgjsG1328"><text id="SvgjsText1329" font-family="微软雅黑" text-anchor="middle" font-size="13px" width="68" fill="#323232" font-weight="400" align="middle" anchor="middle" family="微软雅黑" size="13px" weight="400" font-style="" y="9.05" transform="rotate(0)"><tspan id="SvgjsTspan1330" dy="16" x="50"><tspan id="SvgjsTspan1331" style="text-decoration:;">init predicate</tspan></tspan><tspan id="SvgjsTspan1332" dy="16" x="50"><tspan id="SvgjsTspan1333" style="text-decoration:;">init priority</tspan></tspan><tspan id="SvgjsTspan1334" dy="16" x="50"><tspan id="SvgjsTspan1335" style="text-decoration:;">init extenter</tspan></tspan></text></g></g><g id="SvgjsG1336"><path id="SvgjsPath1337" d="M313.5 498L394.25 498L394.25 498L475 498" stroke="#323232" stroke-width="2" fill="none" marker-end="url(#SvgjsMarker1338)"></path></g><g id="SvgjsG1340"><path id="SvgjsPath1341" d="M263 212L263 236L263.5 236L263.5 260" stroke="#323232" stroke-width="2" fill="none" marker-end="url(#SvgjsMarker1342)"></path></g><g id="SvgjsG1344"><path id="SvgjsPath1345" d="M263.5 419L263.5 441L263.5 441L263.5 463" stroke="#323232" stroke-width="2" fill="none" marker-end="url(#SvgjsMarker1346)"></path></g><g id="SvgjsG1348"><path id="SvgjsPath1349" d="M263.5 533L263.5 541L263.5 541L263.5 549" stroke="#323232" stroke-width="2" fill="none" marker-end="url(#SvgjsMarker1350)"></path></g><g id="SvgjsG1352"><path id="SvgjsPath1353" d="M263.5 619L263.5 637L263.5 637L263.5 655" stroke="#323232" stroke-width="2" fill="none" marker-end="url(#SvgjsMarker1354)"></path></g><g id="SvgjsG1356"><path id="SvgjsPath1357" d="M313.5 690L341.75 690L341.75 690L370 690" stroke="#323232" stroke-width="2" fill="none" marker-end="url(#SvgjsMarker1358)"></path></g><g id="SvgjsG1360" transform="translate(359,792)"><path id="SvgjsPath1361" d="M 16.666666666666668 0L 83.33333333333333 0C 105.55555555555556 0 105.55555555555556 50 83.33333333333333 50L 16.666666666666668 50C -5.555555555555556 50 -5.555555555555556 0 16.666666666666668 0Z" stroke="#323232" stroke-width="2" fill-opacity="1" fill="#ffffff"></path><g id="SvgjsG1362"><text id="SvgjsText1363" font-family="微软雅黑" text-anchor="middle" font-size="13px" width="19" fill="#323232" font-weight="400" align="middle" anchor="middle" family="微软雅黑" size="13px" weight="400" font-style="" y="15.05" transform="rotate(0)"><tspan id="SvgjsTspan1364" dy="16" x="50"><tspan id="SvgjsTspan1365" style="text-decoration:;">end</tspan></tspan></text></g></g><g id="SvgjsG1366"><path id="SvgjsPath1367" d="M409 747L409 769.5L409 769.5L409 792" stroke="#323232" stroke-width="2" fill="none" marker-end="url(#SvgjsMarker1368)"></path></g></svg>